<?xml version="1.0" standalone="no"?>
<!DOCTYPE svg PUBLIC "-//W3C//DTD SVG 20010904//EN"
 "http://www.w3.org/TR/2001/REC-SVG-20010904/DTD/svg10.dtd">
<svg version="1.0" xmlns="http://www.w3.org/2000/svg"
 width="260.000000pt" height="260.000000pt" viewBox="0 0 260.000000 260.000000"
 preserveAspectRatio="xMidYMid meet">
<metadata>
Created by potrace 1.11, written by Peter Selinger 2001-2013
</metadata>
<g transform="translate(0.000000,260.000000) scale(0.100000,-0.100000)"
fill="#000000" stroke="none">
<path d="M185 1919 c-27 -4 -68 -14 -90 -22 -39 -14 -40 -15 -43 -65 l-3 -52
200 0 201 0 0 54 c0 53 -1 55 -32 65 -34 11 -155 32 -173 30 -5 -1 -32 -5 -60
-10z"/>
<path d="M50 1710 l0 -60 820 0 820 0 0 -179 0 -179 40 -35 c101 -86 230 -127
405 -127 193 0 298 32 374 115 l41 45 0 240 0 240 -1250 0 -1250 0 0 -60z
m2380 -229 l0 -169 -32 -20 c-65 -40 -146 -56 -273 -56 -125 0 -197 14 -277
55 l-38 19 0 170 0 170 310 0 310 0 0 -169z"/>
<path d="M883 1535 c-193 -52 -357 -225 -393 -414 -55 -295 128 -576 415 -636
88 -18 142 -18 226 -1 283 60 469 336 420 622 -35 201 -197 377 -396 429 -73
19 -202 18 -272 0z m230 -130 c160 -42 269 -156 303 -316 19 -90 9 -161 -35
-255 -107 -228 -403 -298 -607 -144 -199 150 -215 445 -34 614 105 98 242 135
373 101z"/>
</g>
</svg>
