<?xml version="1.0" encoding="utf-8"?>
<!-- Generator: Adobe Illustrator 16.2.1, SVG Export Plug-In . SVG Version: 6.00 Build 0)  -->
<!DOCTYPE svg PUBLIC "-//W3C//DTD SVG 1.1//EN" "http://www.w3.org/Graphics/SVG/1.1/DTD/svg11.dtd">
<svg version="1.1" id="Layer_1" xmlns="http://www.w3.org/2000/svg" xmlns:xlink="http://www.w3.org/1999/xlink" x="0px" y="0px"
	 width="260px" height="260px" viewBox="0 0 260 260" enable-background="new 0 0 260 260" xml:space="preserve">
<g id="Layer_1_2_">
	<g id="Layer_1_1_" display="none">
	</g>
	<g id="Layer_2">
		<rect x="-88.441" y="40.811" display="none" width="424.349" height="192.363"/>
		<path d="M7.417,83.751c-7.257,0,161.753,10.51,161.751,10.51v35.284c0,0,11.316,17.499,44.164,17.499
			c32.738,0,38.811-12.569,41.486-17.386V83.507C254.818,83.507,14.674,83.751,7.417,83.751z M243.08,128.828
			c0,0-7.043,8.347-31.088,8.347c-20.889,0-31.092-8.347-31.092-8.347V94.195h62.182L243.08,128.828L243.08,128.828z"/>
		<path d="M44.788,81.265H5.031v-8.958c0,0,9.704-4.649,21.612-4.649c0,0,15.163,1.473,18.224,4.536L44.788,81.265z"/>
		<circle fill="none" stroke="#000000" stroke-width="13" stroke-miterlimit="10" cx="101.918" cy="158.832" r="47.35"/>
		<path d="M180.898,89.716"/>
		<rect x="4.876" y="83.507" width="249.944" height="11.178"/>
	</g>
</g>
</svg>
