<?xml version="1.0" encoding="utf-8"?>
<!-- Generator: Adobe Illustrator 16.2.1, SVG Export Plug-In . SVG Version: 6.00 Build 0)  -->
<!DOCTYPE svg PUBLIC "-//W3C//DTD SVG 1.1//EN" "http://www.w3.org/Graphics/SVG/1.1/DTD/svg11.dtd">
<svg version="1.1" xmlns="http://www.w3.org/2000/svg" xmlns:xlink="http://www.w3.org/1999/xlink" x="0px" y="0px"
	 width="314.424px" height="180.764px" viewBox="0 0 314.424 180.764" enable-background="new 0 0 314.424 180.764"
	 xml:space="preserve">
<g id="Layer_2_1_">
</g>
<g id="Layer_1">
	<g id="Layer_1_1_" display="none">
	</g>
	<g id="Layer_2">
		<rect x="-108.926" y="-31.035" display="none" width="518.127" height="234.874"/>
		<path d="M8.115,21.396c-8.861,0,197.5,12.833,197.498,12.833V77.31c0,0,13.815,21.367,53.924,21.367
			c39.973,0,47.386-15.348,50.654-21.229v-56.35C310.191,21.098,16.976,21.396,8.115,21.396z M295.859,76.434
			c0,0-8.599,10.191-37.959,10.191c-25.505,0-37.961-10.191-37.961-10.191V34.148h75.922L295.859,76.434L295.859,76.434z"/>
		<path d="M53.745,18.36H5.203V7.421c0,0,11.848-5.677,26.388-5.677c0,0,18.513,1.799,22.251,5.538L53.745,18.36z"/>
		<circle fill="none" stroke="#000000" stroke-width="13" stroke-miterlimit="10" cx="123.501" cy="113.068" r="57.814"/>
		<path d="M219.936,28.678"/>
		<rect x="5.013" y="21.098" width="305.179" height="13.648"/>
	</g>
</g>
</svg>
